<?xml version="1.0" encoding="UTF-8" standalone="no"?>
<!-- Generator: Adobe Illustrator 15.0.2, SVG Export Plug-In . SVG Version: 6.00 Build 0)  -->

<svg
   xmlns:dc="http://purl.org/dc/elements/1.1/"
   xmlns:cc="http://creativecommons.org/ns#"
   xmlns:rdf="http://www.w3.org/1999/02/22-rdf-syntax-ns#"
   xmlns:svg="http://www.w3.org/2000/svg"
   xmlns="http://www.w3.org/2000/svg"
   xmlns:sodipodi="http://sodipodi.sourceforge.net/DTD/sodipodi-0.dtd"
   xmlns:inkscape="http://www.inkscape.org/namespaces/inkscape"
   version="1.0"
   id="svg5692"
   sodipodi:docname="projestion.svg"
   inkscape:version="0.91 r13725"
   inkscape:export-filename="/mnt/home1/robert/svn/graphics/trunk/toolbar-icons/24x24/projection.png"
   inkscape:export-xdpi="90"
   inkscape:export-ydpi="90"
   x="0px"
   y="0px"
   width="24px"
   height="24px"
   viewBox="0 0 24 24"
   enable-background="new 0 0 24 24"
   xml:space="preserve"><metadata
     id="metadata51"><rdf:RDF><cc:Work
         rdf:about=""><dc:format>image/svg+xml</dc:format><dc:type
           rdf:resource="http://purl.org/dc/dcmitype/StillImage" /></cc:Work></rdf:RDF></metadata><defs
     id="defs49" /><sodipodi:namedview
     pagecolor="#ffffff"
     bordercolor="#666666"
     borderopacity="1"
     objecttolerance="10"
     gridtolerance="10"
     guidetolerance="10"
     inkscape:pageopacity="0"
     inkscape:pageshadow="2"
     inkscape:window-width="1920"
     inkscape:window-height="1026"
     id="namedview47"
     showgrid="false"
     inkscape:zoom="9.8333333"
     inkscape:cx="16.589408"
     inkscape:cy="10.786322"
     inkscape:window-x="0"
     inkscape:window-y="25"
     inkscape:window-maximized="1"
     inkscape:current-layer="svg5692" /><g
     id="layer8"
     inkscape:groupmode="layer"
     inkscape:label="main"><linearGradient
       id="path6995-2_1_"
       gradientUnits="userSpaceOnUse"
       x1="3.0864"
       y1="14.0254"
       x2="20.9115"
       y2="10.8823"><stop
         offset="0"
         style="stop-color:#C8E6FA"
         id="stop5" /><stop
         offset="0.2857"
         style="stop-color:#B7DDF6"
         id="stop7" /><stop
         offset="0.8515"
         style="stop-color:#8AC7EB"
         id="stop9" /><stop
         offset="1"
         style="stop-color:#7DC1E8"
         id="stop11" /></linearGradient><path
       id="path6995-2"
       sodipodi:ry="10.5"
       sodipodi:rx="10.5"
       sodipodi:cy="12.5"
       sodipodi:cx="12.5"
       sodipodi:type="arc"
       fill="url(#path6995-2_1_)"
       stroke="#4774B4"
       stroke-width="0.75"
       stroke-linecap="round"
       stroke-linejoin="round"
       d="   M21.049,12.457c0,4.987-4.054,9.039-9.049,9.039c-4.998,0-9.049-4.052-9.049-9.039c0-4.995,4.052-9.046,9.049-9.046   C16.995,3.411,21.049,7.462,21.049,12.457z" /><path
       id="path7011-1"
       sodipodi:nodetypes="cc"
       fill="none"
       stroke="#4774B4"
       stroke-width="0.75"
       stroke-linecap="round"
       stroke-linejoin="round"
       d="   M12,3.887c4.762,4.763,4.762,12.37,0,17.135" /><path
       id="path7009-4"
       sodipodi:nodetypes="cc"
       fill="none"
       stroke="#4774B4"
       stroke-width="0.75"
       stroke-linecap="round"
       stroke-linejoin="round"
       d="   M12,3.887c-4.763,4.763-4.763,12.37,0,17.135" /><path
       id="path7013-8"
       sodipodi:nodetypes="cc"
       fill="none"
       stroke="#4774B4"
       stroke-width="0.75"
       stroke-linecap="round"
       stroke-linejoin="round"
       d="   M3.427,12.457c1.905,0,15.24,0,17.146,0" /><path
       id="path5341"
       sodipodi:nodetypes="cc"
       fill="none"
       stroke="#4774B4"
       stroke-width="0.75"
       stroke-linecap="round"
       stroke-linejoin="round"
       d="   M18.667,6.745c-2.675,1.918-10.309,2.067-13.335,0" /><path
       id="path5343"
       sodipodi:nodetypes="cc"
       fill="none"
       stroke="#4774B4"
       stroke-width="0.75"
       stroke-linecap="round"
       stroke-linejoin="round"
       d="   M18.667,18.163c-3.447-1.867-9.708-1.995-13.335,0" /></g><g
     id="g19"><linearGradient
       id="SVGID_1_"
       gradientUnits="userSpaceOnUse"
       x1="0.9834"
       y1="6.6646"
       x2="23.6108"
       y2="8.6442"><stop
         offset="0"
         style="stop-color:#F5F5F5"
         id="stop22" /><stop
         offset="0.2503"
         style="stop-color:#E4E4E4"
         id="stop24" /><stop
         offset="0.7217"
         style="stop-color:#C9C9C9"
         id="stop26" /><stop
         offset="1"
         style="stop-color:#BFBFBF"
         id="stop28" /></linearGradient><path
       fill="url(#SVGID_1_)"
       fill-opacity="0.8"
       stroke="#404040"
       stroke-width="0.5"
       stroke-linecap="round"
       d="M23.4,11.046   c0,0-4.453,2.013-11.4,2.013c-6.948,0-11.4-2.013-11.4-2.013l8.479-8.729c0,0,1.75,0.425,2.921,0.425s2.922-0.425,2.922-0.425   L23.4,11.046z"
       id="path30" /><polyline
       fill="none"
       stroke="#404040"
       stroke-width="0.5"
       stroke-linecap="round"
       stroke-linejoin="round"
       points="12,13.059    12,7.312 12,2.741  "
       id="polyline32" /><path
       fill="none"
       stroke="#404040"
       stroke-width="0.5"
       stroke-linecap="round"
       stroke-linejoin="round"
       d="M20.41,8.064   c0,0-3.283,1.375-8.41,1.375c-5.126,0-8.41-1.375-8.41-1.375"
       id="path34" /><path
       fill="none"
       stroke="#404040"
       stroke-width="0.5"
       stroke-linecap="round"
       stroke-linejoin="round"
       d="M17.561,4.997   c0,0-2.17,0.802-5.561,0.802c-3.39,0-5.562-0.802-5.562-0.802"
       id="path36" /><line
       fill="none"
       stroke="#404040"
       stroke-width="0.5"
       stroke-linecap="round"
       stroke-linejoin="round"
       x1="13.266"
       y1="2.632"
       x2="18.076"
       y2="12.535"
       id="line38" /><line
       fill="none"
       stroke="#404040"
       stroke-width="0.5"
       stroke-linecap="round"
       stroke-linejoin="round"
       x1="10.736"
       y1="2.632"
       x2="5.923"
       y2="12.535"
       id="line40" /></g><path
     style="fill:#c4a000"
     inkscape:connector-curvature="0"
     d="m 15.012,13 6.977,0 C 23.1,13 24,13.9 24,15.012 l 0,6.977 C 24,23.1 23.1,24 21.988,24 l -6.977,0 C 13.9,24 13,23.1 13,21.988 l 0,-6.977 C 13,13.9 13.9,13 15.012,13 Z"
     inkscape:export-ydpi="120"
     inkscape:export-xdpi="120"
     id="rect2730" /><path
     style="opacity:0.3;fill:#fcffff"
     inkscape:connector-curvature="0"
     d="m 14,19 9,-0.01 c 0,0 0,0 0,-2 C 23,14 22,14 18.5,14 15,14 14,14 14,17 c 0,2 0,2 0,2 z"
     enable-background="new    "
     sodipodi:nodetypes="ccsssc"
     id="path4133" /><text
     xml:space="preserve"
     style="font-style:normal;font-variant:normal;font-weight:normal;font-stretch:normal;font-size:11.25px;line-height:38.99999857%;font-family:sans-serif;-inkscape-font-specification:sans-serif;letter-spacing:0px;word-spacing:0px;fill:#ffffff;fill-opacity:1;stroke:none;stroke-width:1px;stroke-linecap:butt;stroke-linejoin:miter;stroke-opacity:1"
     x="15.762712"
     y="22.728813"
     id="text3386"
     sodipodi:linespacing="38.999999%"><tspan
       sodipodi:role="line"
       id="tspan3388"
       x="15.762712"
       y="22.728813"
       style="font-style:normal;font-variant:normal;font-weight:normal;font-stretch:normal;font-size:11.25px;line-height:38.99999857%;font-family:sans-serif;-inkscape-font-specification:sans-serif;fill:#ffffff;fill-opacity:1">?</tspan></text>
</svg>